<svg width="25" height="22" viewBox="0 0 25 22" fill="none" xmlns="http://www.w3.org/2000/svg">
<path d="M25 3.18195C24.0792 3.58889 23.0917 3.86528 22.0542 3.98889C23.1125 3.35417 23.9264 2.34861 24.3083 1.15278C23.3195 1.74028 22.2208 2.16667 21.0528 2.39583C20.1167 1.4 18.782 0.777779 17.3083 0.777779C14.4764 0.777779 12.1792 3.07222 12.1792 5.90556C12.1792 6.30695 12.2236 6.69861 12.3125 7.075C8.04862 6.85972 4.26946 4.81806 1.74029 1.71667C1.29863 2.47361 1.04585 3.35556 1.04585 4.29306C1.04585 6.07361 1.9514 7.64306 3.32779 8.5625C2.48751 8.53611 1.69585 8.30556 1.00418 7.92222C1.00418 7.94306 1.00418 7.96389 1.00418 7.98611C1.00418 10.4708 2.77224 12.5458 5.11807 13.0153C4.68751 13.1319 4.23474 13.1944 3.76668 13.1944C3.43751 13.1944 3.11529 13.1653 2.80279 13.1042C3.45418 15.1431 5.35001 16.625 7.59307 16.6667C5.8389 18.0417 3.62779 18.8611 1.22501 18.8611C0.809737 18.8611 0.402793 18.8361 0.00140381 18.7875C2.27085 20.2444 4.96668 21.0917 7.8639 21.0917C17.2972 21.0917 22.457 13.2764 22.457 6.5C22.457 6.27639 22.4514 6.05417 22.4403 5.83472C23.4417 5.11528 24.3125 4.21111 25 3.18195Z" fill="black"/>
</svg>
